<svg xmlns="http://www.w3.org/2000/svg" viewBox="0 0 800 600" class="w-full h-full">
  <rect width="800" height="600" fill="#0f172a"/>

  <g fill="#fff" opacity="0.8">
    <circle cx="120" cy="80" r="1.5"/>
    <circle cx="700" cy="120" r="1"/>
    <circle cx="300" cy="200" r="1.2"/>
    <circle cx="500" cy="80" r="0.8"/>
    <circle cx="200" cy="400" r="1.5"/>
    <circle cx="600" cy="500" r="1"/>
  </g>

  <g transform="translate(400 300)">
    <path d="M-30 0a30 50 0 0 1 60 0v70h-60z" fill="#94a3b8"/>
    <circle r="35" fill="#fff" stroke="#64748b" stroke-width="2"/>
    <path d="M-15 -10a15 15 0 0 1 30 0v20h-30z" fill="#38bdf8"/>
    <rect x="-40" y="20" width="20" height="60" rx="10" fill="#64748b"/>
    <path d="M-60 30l-30-20" stroke="#94a3b8" stroke-width="8" stroke-linecap="round"/>
    <path d="M60 30l30-20" stroke="#94a3b8" stroke-width="8" stroke-linecap="round"/>
    <path d="M-20 70l-15 30" stroke="#94a3b8" stroke-width="8" stroke-linecap="round"/>
    <path d="M20 70l15 30" stroke="#94a3b8" stroke-width="8" stroke-linecap="round"/>
  </g>
  <g transform="translate(150 100)">
    <circle cx="0" cy="0" r="80" fill="url(#planetGradient)"/>
    <circle cx="-30" cy="-20" r="15" fill="#ffffff22"/>
    <circle cx="40" cy="30" r="10" fill="#ffffff33"/>
    <defs>
      <radialGradient id="planetGradient">
        <stop offset="0%" stop-color="#4f46e5"/>
        <stop offset="100%" stop-color="#6366f1"/>
      </radialGradient>
    </defs>
  </g>

  <g transform="translate(600 400) rotate(30)">
    <rect x="-5" y="-30" width="10" height="60" fill="#64748b"/>
    <circle r="15" fill="#475569"/>
    <path d="M-40-40l80 80M-40 40l80-80" stroke="#94a3b8" stroke-width="4"/>
  </g>

  <g transform="translate(500 200)" fill="#fff" font-family="Arial" font-size="60" font-weight="bold">
    <text x="0" y="0" text-anchor="middle">?</text>
  </g>
</svg>
